# xmcd
#
# Track frame offsets:
#	150
#	17586
#	33870
#	46340
#	60600
#	72841
#	85095
#	97804
#	106045
#
# Disc length: 1569 seconds
#
# Revision: 0
# Processed by: cddbd v1.5.1PL2 Copyright (c) Steve Scherf et al.
# Submitted via: dBpowerAMP V4.0
#
DISCID=5e061f09
DTITLE=Wisdom - Que te confunda o Demo
DYEAR=2003
DGENRE=Grindcore
TTITLE0=Embalsamado en Seme de Porco
TTITLE1=Alacran
TTITLE2=Guerra Quimica con Xurro
TTITLE3=O Demo, o Anticristo e o Falso Profeta
TTITLE4=Comido polos Vermes
TTITLE5=Cinco Ferrados de Esterco
TTITLE6=A Sangue do Demo
TTITLE7=Dentadura de Mulo
TTITLE8=Matachin
EXTD=
EXTT0=
EXTT1=
EXTT2=
EXTT3=
EXTT4=
EXTT5=
EXTT6=
EXTT7=
EXTT8=
PLAYORDER=
